<?xml version="1.0" encoding="UTF-8" standalone="no"?>
<!-- Created with Inkscape by Victor Gasia pour la FFMC67-->

<svg
   xmlns:dc="http://purl.org/dc/elements/1.1/"
   xmlns:cc="http://creativecommons.org/ns#"
   xmlns:rdf="http://www.w3.org/1999/02/22-rdf-syntax-ns#"
   xmlns:svg="http://www.w3.org/2000/svg"
   xmlns="http://www.w3.org/2000/svg"
   version="1.1"
   width="10730"
   height="1000"
   id="chiffres-FFMC">
  <title
     id="titre">Chiffres logo FFMC</title>
  <desc
     id="description">Victor Gasia 2014 pour la FFMC67</desc>
<!-- Created with Inkscape by Victor Gasia pour la FFMC67-->
  <defs
     id="defs" />
  <metadata
     id="metadata">
    <rdf:RDF>
      <cc:Work
         rdf:about="">
        <dc:format>image/svg+xml</dc:format>
        <dc:type
           rdf:resource="http://purl.org/dc/dcmitype/StillImage" />
        <dc:title>Chiffres logo FFMC</dc:title>
      </cc:Work>
    </rdf:RDF>
  </metadata>
  <path
     d="m 279.9,425.5 -279.9,0 0,-202 c 43.3,0.9 86.2,-2 127.1,-8.3 41.4,-7.8 78.4,-19.5 112,-35.6 32.6,-16.5 59.8,-38.4 80.8,-65.7 21.4,-28.2 33.1,-62.3 36,-102.7 l 281.4,0 0,977.1 -357.4,0 0,-562.8"
     id="path1"
     style="fill:#00001a;fill-opacity:1;stroke:none" />
  <path
     d="m 978.5,422.6 c -4.5,-67.2 4,-127.1 25.5,-179.7 22,-52.5 55,-96.4 100,-131.9 45,-36.5 99,-64.3 163,-83.2 C 1333,9.3 1405,0 1485,0 c 73,0 138,6.3 198,19.5 61,12.6 112,31.1 155,56.4 43,24.9 77,57.5 99,96.9 24,38.5 36,83.3 36,134.9 0,62.8 -16,115.4 -50,158.7 -33,42.8 -75,80.8 -127,113.4 -51,31.7 -108,60.9 -170,87.2 -62,26.3 -121,53.5 -177,81.8 l 0,1 541,0 0,238.5 -1035.5,0 c -3.5,-47.2 2.3,-91.5 17.2,-131.9 16,-39.9 39.3,-76.5 68.3,-109.1 26,-28.2 54,-54.5 86,-78.8 33,-24.4 68,-46.8 105,-67.2 38,-21.9 77,-41.9 117,-60.4 40,-20 79,-39.4 117,-57.9 15,-7.3 31,-15.6 50,-25.4 19,-9.2 37,-19.4 53,-30.6 17,-11.2 31,-23.9 41,-38 12,-14.1 17,-30.2 17,-47.7 0,-44.8 -14,-76 -43,-93 -27,-17.5 -61,-26.3 -101,-26.3 -69,0 -117,18.5 -144,56 -27,36.5 -39,84.7 -36,144.6 l -323.5,0"
     id="path2"
     style="fill:#00001a;fill-opacity:1;stroke:none" />
  <path
     d="m 2081,336.9 c 1,-57.9 15,-107.6 41,-149.9 27,-42.4 63,-77.5 108,-105.2 46,-27.3 99,-47.7 158,-60.9 C 2448,6.8 2511,0 2579,0 c 87,0 160,9.3 218,27.8 60,18 107,40.4 142,66.2 37,26.3 63,54 78,82.7 16,29.2 24,54.1 24,75 0,51.6 -8,91 -26,119.3 -16,26.8 -33,47.2 -53,60.4 -19,13.1 -38,20.9 -55,23.3 -16,2.9 -24,4.9 -24,5.9 l 0,2.9 c 0,1.9 5,3.9 14,5.3 10,2 22,5.9 36,11.7 15,4.4 31,11.2 48,20.5 17,9.2 32,21.4 46,38.4 16,16.1 27,36.1 36,61.9 11,23.8 16,54.5 16,91 0,29.7 -8,62.8 -24,98.4 -15,35.5 -42,68.6 -81,99.8 -38,30.6 -89,56.9 -154,78.8 -65,20 -146,30.7 -243,30.7 -89,0 -164,-7.3 -227,-22.4 -62,-16.1 -112,-36 -153,-60.4 -38,-24.8 -68,-51.1 -91,-80.3 -20,-29.7 -36,-58.9 -46,-87.1 -9,-28.8 -15,-55.1 -15,-78.9 0,-22.9 0,-40.9 1,-53.1 l 327,0 c -3,52.6 13,91.5 46,116.9 16,15.5 36,27.2 60,33.6 26,6.3 53,9.7 83,9.7 49,0 88,-7.8 116,-23.9 30,-17 43,-45.7 43,-85.6 0,-21.5 -4,-39 -13,-52.1 -9,-13.2 -21,-23.4 -36,-30.7 -15,-7.3 -33,-12.2 -52,-14.1 -19,-2.5 -38,-4.4 -58,-4.4 -25,0 -46,1 -60,2.9 -14,1 -27,2.4 -40,4.4 l 0,-191.3 c 13,1.4 27,2.9 42,4.3 16,1 35,1.5 58,1.5 19,0 37,-1 55,-2.9 20,-1.5 37,-5.9 53,-12.7 16,-6.3 29,-15.1 40,-26.8 10,-11.6 15,-27.2 15,-46.2 0,-15.1 -5,-28.2 -15,-39 -10,-11.6 -22,-20.4 -36,-27.2 -16,-6.4 -33,-10.7 -52,-13.7 -19,-3.8 -36,-5.3 -54,-5.3 -22,0 -44,2.4 -64,8.3 -21,4.3 -39,11.7 -54,22.4 -15,10.2 -27,22.8 -36,37.9 -8,14.6 -11,32.7 -10,53.1 l -323,0"
     id="path3"
     style="fill:#00001a;fill-opacity:1;stroke:none" />
  <path
     d="m 3664,795 -530,0 0,-264.3 545,-519.5 342,0 0,544.8 162,0 0,239 -162,0 0,193.3 -357,0 0,-193.3 m -292,-239 292,0 0,-273.6 -292,273.6"
     id="path4"
     style="fill:#00001a;fill-opacity:1;stroke:none" />
 <path
     d="m 5187,249.8 -557,0 -34,129.5 4,2.4 c 36,-22.4 77,-37 123,-44.8 47,-8.3 93,-12.7 138,-12.7 52,0 102,6.4 149,20 48,13.2 90,33.1 126,59.9 35,26.8 63,60.4 83,102.7 21,42.4 31,92 31,149 0,49.7 -12,95.4 -36,137.8 -22,42.3 -57,78.8 -103,109.5 -45,29.7 -101,53.6 -168,71.1 -66,17.5 -142,25.8 -229,25.8 -73,0 -137,-5.8 -192,-16.6 -54,-11.6 -100,-26.2 -139,-43.8 -38,-19 -69,-39.4 -95,-61.8 -23,-23.4 -42,-46.7 -56,-70.1 -13,-24.4 -21,-47.7 -26,-68.7 -4,-22.8 -5,-41.8 -3,-57.9 l 338,0 c 7,26.8 23,48.7 48,64.3 17,11.7 38,19.9 60,25.8 25,4.8 50,6.8 76,6.8 50,0 93,-11.7 129,-35.1 35,-24.3 53,-56.4 53,-95.4 0,-43.3 -16,-76.4 -48,-99.8 -31,-24.3 -73,-36.5 -124,-36.5 -40,0 -75,4.9 -103,15.6 -29,9.2 -52,24.8 -70,47.7 l -320,0 124,-563.3 821,0 0,238.6"
     id="path5"
     style="fill:#00001a;fill-opacity:1;stroke:none" />
  <path
     d="m 6017,272.2 c -7,-20 -24,-38 -49,-53.1 -22,-11.2 -53,-17.1 -93,-17.1 -33,0 -62,6.4 -86,18.5 -23,11.2 -44,26.8 -62,46.3 -17,18.5 -31,40.4 -41,64.3 -9,23.8 -15,47.7 -19,72 40,-30.2 83,-50.1 127,-60.4 45,-10.2 95,-15.5 150,-15.5 57,0 111,7.8 159,22.4 50,14.1 92,35 128,61.8 34,27.3 63,59.9 83,98.8 19,38 29,81.3 29,128.6 0,59.8 -10,112.4 -39,157.2 -19,44.8 -54,83.3 -99,113.9 -44,30.2 -96,52.6 -157,67.7 -59,15.1 -124,22.4 -195,22.4 -91,0 -168,-12.7 -234,-38 -64,-26.3 -117,-61.3 -158,-103.7 -41,-43.3 -71,-93 -91,-149 -18,-56.4 -27,-114.4 -27,-174.3 0,-76.4 11,-147.9 32,-213.2 22,-65.7 55,-122.2 99,-170.4 45,-47.2 102,-84.2 169,-110.5 C 5711,13.6 5790,0 5882,0 c 129,0 232,21.4 307,64.3 76,42.3 125,111.5 144,207.9 l -316,0 m -164,241.9 c -47,0 -86,12.7 -117,37.5 -31,24.8 -46,55 -46,91.5 0,39.5 15,71.6 44,96.9 32,25.3 70,38 119,38 51,0 93,-13.2 125,-39 33,-26.7 50,-58.4 50,-95.9 0,-34.5 -16,-64.2 -48,-90 -31,-25.8 -74,-39 -127,-39"
     id="path6"
     style="fill:#00001a;fill-opacity:1;stroke:none" />
  <path
     d="m 7395,239 c -73,55.1 -137,114.5 -181,178.2 -48,63.8 -82,128.1 -112,193.8 -24,64.3 -43,129 -53,193.3 -10,64.7 -15,126.1 -15,184 l -379,0 c 0,0 0,-17.5 4,-53.1 0,-35.5 10,-81.3 30,-137.7 14,-56 39,-118.8 68,-188 39,-69.1 83,-138.2 141,-206.4 29,-35 54,-61.8 68,-81.3 24,-20.9 34,-36.5 44,-46.2 15,-10.8 24,-17.1 29,-20 5,-3.4 5,-5.8 5,-5.8 l -570,0 0,-238.6 921,0 0,227.8"
     id="path7"
     style="fill:#00001a;fill-opacity:1;stroke:none" />
  <path
     d="m 7857,296.5 c 0,19.5 5,36 10,48.7 10,13.1 29,24.3 44,32.6 14,7.8 34,12.7 53,17 20,2.5 44,4.4 59,4.4 24,0 43,-1.9 68,-4.4 19,-2.9 39,-8.2 58,-15.5 15,-8.3 29,-19.5 44,-32.7 10,-12.6 15,-29.7 15,-50.1 0,-23.9 -5,-42.4 -15,-56.5 -15,-14.1 -24,-24.3 -44,-32.1 -19,-8.3 -34,-14.1 -53,-17.1 -25,-2.4 -44,-3.8 -69,-3.8 -19,0 -48,1.4 -63,5.8 -19,2.4 -44,8.3 -58,16.5 -10,7.4 -29,18.1 -39,32.2 -5,14.1 -10,32.6 -10,55 m -307,-28.2 c 0,-53.1 15,-97.4 49,-132 29,-35 68,-61.8 117,-81.3 44,-20.9 97,-35 151,-42.3 C 7925,4.4 7979,0 8027,0 c 83,0 151,7.8 220,22.9 58,13.6 107,33.1 150,58.9 35,23.8 69,52.6 83,85.2 25,31.6 34,65.7 34,101.3 0,50.6 -14,94.9 -53,133.4 -34,37.4 -78,61.3 -137,71.5 l 0,2.9 c 35,2.5 64,9.8 93,21 24,11.2 54,26.3 73,45.3 24,18 39,40.4 49,65.7 14,25.3 24,53 24,82.7 0,58 -15,106.7 -54,146.1 -34,39.4 -73,71.1 -126,95.9 -49,23.9 -107,41.4 -171,51.6 -58,10.2 -121,15.6 -185,15.6 -63,0 -126,-4.9 -189,-14.1 -69,-10.2 -122,-27.3 -176,-50.7 -48,-24.3 -87,-55.9 -117,-95.4 -34,-40.4 -48,-90 -48,-149 0,-42.3 10,-75.9 24,-102.7 20,-25.8 39,-46.2 63,-61.3 25,-16.1 54,-27.8 78,-35.1 30,-7.8 49,-13.1 78,-15.6 l 0,-2.9 c -68,-13.6 -117,-38.4 -146,-73 -29,-34.6 -44,-78.4 -44,-131.9 m 288,421.1 c 0,21.9 4,39.4 19,53.5 10,13.2 24,23.9 44,32.2 19,8.7 39,14.6 58,18.5 25,2.4 49,3.9 68,3.9 25,0 44,-1.5 69,-3.9 19,-3.9 39,-9.8 58,-18.5 20,-8.3 39,-19 49,-32.2 9,-14.1 14,-31.6 14,-53.5 0,-23.4 0,-42.9 -9,-58.9 -10,-16.6 -30,-29.7 -44,-39 -15,-10.7 -39,-17.5 -59,-21.4 -24,-4.9 -48,-6.8 -78,-6.8 -19,0 -48,1.9 -68,5.8 -29,3.4 -44,10.3 -63,20.5 -19,9.7 -34,22.4 -44,39.9 -10,15.6 -14,36 -14,59.9"
     id="path8"
     style="fill:#00001a;fill-opacity:1;stroke:none" />
  <path
     d="m 8943,731.7 c 14,22.4 29,40 53,52.1 20,5.4 30,9.3 44,11.2 20,1.5 29,2.5 44,2.5 39,0 68,-6.4 92,-19.5 25,-13.2 49,-29.2 64,-49.2 19,-19.5 29,-40.4 39,-62.8 5,-23.8 14,-45.3 14,-64.7 l 0,-3 c -34,26.8 -78,46.8 -121,59 -49,12.1 -93,18 -146,18 -59,0 -112,-6.4 -161,-19.5 -49,-14.1 -93,-34.1 -132,-60.4 -39,-25.8 -63,-58.4 -82,-96.9 -20,-38.4 -30,-82.7 -30,-133.4 0,-58.9 10,-111 39,-155.8 25,-45.7 64,-84.7 107,-115.3 49,-30.7 103,-54.1 161,-70.1 C 8991,8.3 9060,0 9123,0 c 88,0 161,12.7 224,38 68,25.3 122,59.4 156,102.7 43,42.8 78,92.5 92,148.5 24,55.5 34,113.9 34,175.3 0,77.9 -10,149.9 -39,215.6 -19,64.8 -53,121.8 -102,169.9 -44,46.3 -97,83.3 -166,110.6 -73,26.3 -146,39.4 -238,39.4 -58,0 -107,-4.9 -161,-14.1 -48,-10.2 -97,-26.3 -136,-48.2 -34,-21 -73,-48.7 -102,-82.8 -25,-34.1 -44,-75.4 -54,-123.2 l 312,0 M 9113,222 c -24,0 -44,3.4 -73,11.2 -14,6.3 -34,15.6 -53,28.2 -15,10.8 -25,24.9 -39,41.9 -10,16.1 -15,33.6 -15,53.6 0,18.5 5,36.5 15,53 14,16.1 24,30.2 39,42.4 19,11.2 34,19.9 53,26.3 24,6.8 44,10.2 68,10.2 25,0 44,-2.9 64,-8.3 19,-6.8 43,-16 58,-26.7 15,-12.7 29,-26.3 39,-42.4 5,-16.1 10,-33.6 10,-53.1 0,-39.4 -15,-72 -49,-96.9 -34,-26.7 -68,-39.4 -117,-39.4"
     id="path9"
     style="fill:#00001a;fill-opacity:1;stroke:none" />
  <path
     d="m 9707,500 c 0,-94.9 20,-173.8 49,-237.6 34,-63.8 78,-114.4 126,-152.9 49,-39.4 103,-67.6 158,-84.2 60,-16.5 120,-25.3 170,-25.3 60,0 120,8.8 180,25.3 60,16.6 110,44.8 160,84.2 50,38.5 90,89.1 120,152.9 40,63.8 60,142.7 60,237.6 0,94.4 -20,173.8 -60,237.1 -30,63.8 -70,115.4 -120,154.3 -50,38.5 -100,66.2 -160,82.8 -60,17.5 -120,25.8 -180,25.8 -50,0 -100,-8.3 -170,-25.8 -55,-16.6 -109,-44.3 -158,-82.8 -48,-38.9 -92,-90.5 -126,-154.3 -29,-63.3 -49,-142.7 -49,-237.1 m 323,0 c 0,25.3 10,55 10,88.1 0,33.1 10,64.3 20,93 10,29.2 30,54.1 50,74.5 30,19.5 60,29.7 100,29.7 50,0 80,-10.2 110,-29.7 20,-20.4 40,-45.3 50,-74.5 20,-28.7 30,-59.9 30,-93 0,-32.1 0,-61.8 0,-88.1 0,-25.3 0,-54.5 0,-87.2 0,-32.6 -10,-63.7 -30,-92.4 -10,-30.2 -20,-55.1 -50,-74.5 -20,-21 -60,-30.7 -100,-30.7 -50,0 -80,9.7 -110,29.2 -20,19.5 -40,44.3 -50,72.5 -10,29.3 -20,60.9 -20,94.5 0,33.1 -10,62.3 -10,88.6"
     id="path0"
     style="fill:#00001a;fill-opacity:1;stroke:none" />
</svg>
