<svg xmlns="http://www.w3.org/2000/svg" viewBox="0 0 183.97 189.47"><defs><style>.cls-1{fill:#fff;}</style></defs><title>Fichier 1</title><g id="Calque_2" data-name="Calque 2"><g id="Calque_1-2" data-name="Calque 1"><path class="cls-1" d="M105.51,189.47H35.05c-6.9,0-8.14-1.29-8.07-8.16.21-18.44,11.2-34.88,28.86-41C68.16,136,76.48,128,82.66,117c3.3-5.86,3-9.42-1.48-14.47a33.27,33.27,0,0,1-8.36-17.25,11.83,11.83,0,0,0-2.3-4.76,18.8,18.8,0,0,1-.07-22.36,13.36,13.36,0,0,0,2.09-6.27c.34-4,0-8,.18-12A32,32,0,0,1,98.56,9.69C105,8.34,111,6.36,115.85,1.47c1.2-1.22,4.3-1.88,5.74-1.19,1.72.83,3.94,3.71,3.61,5.17-1.62,7.1,2.87,10.61,7,14.89,6,6.12,8.19,13.89,8.1,22.42-.06,6.35-.49,12.47,3.86,18.39,3.7,5,2.4,11.41-.53,17.12-1.61,3.14-2.51,6.63-4.08,9.79-2.49,5-4.84,10.18-8.05,14.7-3.77,5.29-4.65,8.58-1.42,14.14,6.23,10.72,14,19.19,26.25,24,17.77,7,26.74,21.21,27.58,40.33.3,6.9-1.13,8.23-8,8.23Q140.74,189.49,105.51,189.47Zm7.68-174c-3.72,1.17-8.42,2.83-13.22,4.1C89.21,22.44,82.34,30.89,82.12,42.05c-.11,5.16.22,10.34-.15,15.48a10.23,10.23,0,0,1-2.62,5.94c-3.8,3.9-3.92,8.2-.1,12.1,1.28,1.31,2.61,3.21,2.71,4.91a26.5,26.5,0,0,0,7.36,17c5.45,5.94,7,13.26,3.6,20.44-6.2,13.28-15.12,24.3-29.43,29.76-2.48.95-5,1.81-7.41,2.94-11.53,5.48-19.68,18-18.8,28.92H173.89c.05-12.29-8.3-25.3-20.74-29.51-14.89-5-23.91-15.74-31.45-28.42-5.08-8.56-4.24-17.45,2.4-24.86A26.55,26.55,0,0,0,131,80.55a10.52,10.52,0,0,1,2.83-5.82c3-3.2,4.2-8.15,1-10.59-4.25-3.23-4-7.22-3.95-11.53,0-3.84.15-7.68,0-11.5-.43-8.41-4.28-14.79-11.46-19.35C117.12,20.35,115.53,17.94,113.19,15.5Z"/><path class="cls-1" d="M37.28,95.47c4.19,0,8.65-.09,13.11,0,4.93.13,7.76,2.91,7.66,7.27-.09,4.14-2.85,6.77-7.53,6.9-4.48.12-9,0-14.23,0,0,4.79.08,9.22,0,13.65-.11,5-2.8,8-7,8.08s-7.23-3.21-7.32-8.31c-.08-4.3,0-8.6,0-13.52-4.43,0-8.54,0-12.64,0-6,0-9.38-2.69-9.34-7.27s3.25-7,9.49-7c4,0,7.93,0,12.49,0,0-4.92-.07-9.36,0-13.8.1-5,2.69-7.88,7-8s7.06,2.66,7.26,7.7c.17,4.32.16,8.64.26,13C36.53,94.45,36.84,94.73,37.28,95.47Z"/></g></g></svg>