<svg xmlns="http://www.w3.org/2000/svg" viewBox="0 0 161.9 152.9"><defs><style>.cls-1{fill:#fff;}</style></defs><title>Fichier 1</title><g id="Calque_2" data-name="Calque 2"><g id="Calque_1-2" data-name="Calque 1"><path class="cls-1" d="M88.42,129.87c11,1.72,21.73,1.44,32.32-2.86,10.15-4.12,20.76-7.1,31.18-10.57,5-1.68,8.48-.68,9.6,3,1.3,4.33-.88,6.81-4.78,8.52-15.08,6.61-30.07,13.42-45.15,20a55.93,55.93,0,0,1-35.2,3.46c-14.94-3.29-29.77-7.09-44.7-10.46-2.83-.64-3.79-1.76-3.75-4.64q.21-16.25,0-32.49c0-3,.91-4.11,3.92-4.31,4.48-.31,8.92-1.1,13.37-1.7,7.47-1,14.89-.68,21.11,3.9C78.84,111,92.57,114.58,108,112.88c5.74-.63,8.36,2.2,8.47,7.3.09,4.65-2,7.06-6.72,7.58C102.64,128.54,95.53,129.18,88.42,129.87Z"/><path class="cls-1" d="M55.59,24.33c2.85-1.71,5.67-3.47,8.55-5.13,8.21-4.72,17.13-5.56,24.49.21C98,26.77,107.31,24.05,117,22a4.77,4.77,0,0,0,2.62-1.33C126.86,12,138.17,13.05,147,8.31l.94,1c-3.3,5.81-6.49,11.68-10,17.35-.54.87-2.61,1.05-4,1.09-20.05.6-32.38,13.19-32.5,33.29,0,2.79,0,5.58,0,8.87-8.37,0-16.15.07-23.93-.09-1.12,0-2.37-1.08-3.3-1.93C62.68,57.31,51.1,46.78,39.7,36.06c-7.38-6.93-7.06-16.58.56-23.09C44.94,9,49.71,5.06,54.6,1.33,55.76.44,58-.37,59,.18a5.64,5.64,0,0,1,2.47,4.3A33.19,33.19,0,0,1,59.6,14c-1.19,3.38-3.11,6.5-4.72,9.73Z"/><path class="cls-1" d="M0,93.81H21.18v52.41H0Z"/><path class="cls-1" d="M133.57,84a24.88,24.88,0,0,1-24.79-25.26,25,25,0,0,1,50,.43A24.81,24.81,0,0,1,133.57,84Zm.62-43.56a18.67,18.67,0,1,0,18.43,19A18.74,18.74,0,0,0,134.19,40.43Z"/><path class="cls-1" d="M33.66,38l4.49,4C30.08,47.72,26,54.87,28.85,64.46a17.5,17.5,0,0,0,14.9,13.06c9.1,1.39,15.73-2.75,20.48-11.12l4.35,3.71C65,79.15,55.46,84.6,44.77,83.9A24.64,24.64,0,0,1,22.6,65.36C19.79,54.72,23.89,44.37,33.66,38Z"/></g></g></svg>