<?xml version="1.0" encoding="iso-8859-1"?>
<!-- Generator: Adobe Illustrator 19.0.0, SVG Export Plug-In . SVG Version: 6.00 Build 0)  -->
<svg xmlns="http://www.w3.org/2000/svg" xmlns:xlink="http://www.w3.org/1999/xlink" version="1.1" id="Layer_1" x="0px" y="0px" viewBox="0 0 512.001 512.001" style="enable-background:new 0 0 512.001 512.001;" xml:space="preserve" width="512px" height="512px">
<g>
	<g>
		<path d="M503.324,441.029H394.101v-51.792c23.851-3.208,44.99-18.104,57.282-40.687c16.331-3.733,31.167-13.188,42.142-26.947    c11.914-14.937,18.476-34.027,18.476-53.754c0-30.009-15.366-57.784-39.543-72.211c-2.519-50.043-41.096-89.945-88.079-89.945    c-14.789,0-29.422,4.025-42.316,11.64c-4.012,2.369-5.344,7.541-2.975,11.552c2.37,4.013,7.543,5.344,11.553,2.975    c10.298-6.082,21.964-9.296,33.738-9.296c39.263,0,71.265,35.053,71.339,78.139c0.006,3.175,1.793,6.078,4.626,7.512    c21.132,10.695,34.785,34.102,34.785,59.633c0,32.222-21.821,60.12-50.759,64.893c-2.71,0.448-5.032,2.185-6.225,4.66    c-9.05,18.768-25.402,31.455-44.044,34.758v-74.645l41.516-38.177c3.429-3.154,3.653-8.49,0.499-11.919    c-3.155-3.429-8.49-3.654-11.919-0.499l-30.096,27.675v-56.312c0-4.659-3.777-8.436-8.436-8.436s-8.436,3.777-8.436,8.436v102.1    l-30.096-27.675c-3.429-3.155-8.766-2.93-11.919,0.499c-3.154,3.429-2.93,8.765,0.499,11.919l41.517,38.177v29.252    c-19.892-2.563-37.435-15.725-46.848-35.641c-1.125-2.381-3.298-4.1-5.873-4.646c-27.992-5.947-48.308-33.038-48.308-64.419    c0-24.744,12.478-47.139,32.564-58.442c2.688-1.513,4.336-4.372,4.298-7.455c-0.002-0.234-0.01-0.466-0.018-0.697    c-0.005-0.134-0.01-0.267-0.01-0.4c0-17.573,5.186-34.177,14.997-48.015c2.695-3.801,1.798-9.067-2.002-11.76    c-3.801-2.696-9.067-1.797-11.76,2.002c-11.177,15.764-17.381,34.439-18.045,54.212c-22.878,14.919-36.894,41.492-36.894,70.556    c0,37.804,24,70.734,57.638,79.942c12.661,23.845,35.055,39.276,60.263,41.746v51.492h-5.343    c-1.243-22.077-16.334-41.283-37.349-47.768c-6.594-14.029-19.402-24.201-34.463-27.499    c-4.938-22.445-25.143-39.182-48.688-39.182c-18.156,0-34.619,9.758-43.395,25.29c-17.283,0.657-32.822,9.89-41.748,24.194    c-5.563-15.304-19.813-26.447-36.497-27.645V326.24c22.773-3.166,42.938-17.41,54.72-38.958    c15.651-3.616,29.865-12.696,40.388-25.888c11.458-14.363,17.768-32.72,17.768-51.688c0-28.788-14.709-55.441-37.868-69.344    c-2.513-48.011-39.564-86.261-84.678-86.261c-17.305,0-33.95,5.581-48.137,16.142c-3.736,2.781-4.511,8.067-1.73,11.804    c2.781,3.736,8.066,4.511,11.804,1.73c11.252-8.378,24.414-12.805,38.063-12.805c37.391,0,67.869,33.398,67.94,74.45    c0.006,3.175,1.793,6.078,4.626,7.512c20.112,10.179,33.106,32.464,33.106,56.772c0,30.675-20.762,57.232-48.295,61.773    c-2.709,0.448-5.032,2.185-6.225,4.66c-8.545,17.72-23.924,29.748-41.484,33.008v-70.88l39.632-36.443    c3.429-3.154,3.652-8.49,0.499-11.919c-3.153-3.43-8.49-3.654-11.919-0.499l-28.212,25.942v-53.094    c0-4.659-3.777-8.436-8.436-8.436s-8.436,3.777-8.436,8.436v96.931l-28.211-25.942c-3.43-3.155-8.766-2.93-11.919,0.499    c-3.154,3.429-2.93,8.766,0.499,11.919l39.63,36.443v27.438c-18.756-2.566-35.272-15.047-44.167-33.865    c-1.125-2.381-3.298-4.1-5.873-4.646c-26.633-5.661-45.964-31.45-45.964-61.325c0-23.561,11.875-44.881,30.992-55.639    c2.686-1.512,4.334-4.366,4.298-7.448c-0.002-0.228-0.009-0.456-0.017-0.683c-0.003-0.123-0.009-0.245-0.009-0.37    c0-10.434,1.923-20.524,5.715-29.989c1.128-2.812,2.427-5.574,3.864-8.212c2.228-4.092,0.718-9.214-3.374-11.442    c-4.092-2.23-9.215-0.719-11.442,3.373c-1.751,3.216-3.335,6.582-4.707,10.006c-4.156,10.371-6.459,21.339-6.862,32.655    C13.417,156.324,0,181.824,0,209.706c0,36.297,23.018,67.926,55.296,76.84c12.138,22.755,33.507,37.519,57.579,39.99v24.129    c-9.232,3.226-17.133,9.604-22.216,18.171c-20.486,1.165-37.039,16.295-40.247,36.249c-15.109,6.71-26.342,20.018-30.478,35.942    H8.436c-4.659,0-8.436,3.777-8.436,8.436s3.777,8.436,8.436,8.436h18.48H217.35h145.845h140.129c4.659,0,8.436-3.777,8.436-8.436    S507.982,441.029,503.324,441.029z M37.627,441.029c4.024-10.255,12.489-18.424,23.273-21.917    c3.393-1.099,5.728-4.212,5.833-7.776c0.425-14.411,12.054-25.7,26.475-25.7c0.578,0,1.21,0.027,1.987,0.084    c3.614,0.261,6.995-1.803,8.398-5.145c3.932-9.354,13.027-15.399,23.171-15.399c13.026,0,24.022,10.162,25.034,23.135    c0.324,4.141,3.613,7.431,7.755,7.755c2.3,0.179,4.524,0.684,6.63,1.454c0.009,0.003,0.017,0.008,0.026,0.011    c0.391,0.144,0.776,0.299,1.158,0.461c0.082,0.035,0.165,0.07,0.247,0.106c0.357,0.155,0.71,0.318,1.057,0.489    c0.118,0.059,0.234,0.12,0.351,0.18c0.481,0.246,0.952,0.508,1.414,0.783c0.252,0.151,0.506,0.297,0.752,0.457    c0.187,0.12,0.367,0.249,0.549,0.372c0.277,0.189,0.552,0.381,0.822,0.581c0.153,0.114,0.304,0.228,0.453,0.345    c0.326,0.254,0.648,0.516,0.961,0.787c0.087,0.074,0.174,0.145,0.26,0.22c0.831,0.736,1.614,1.529,2.343,2.371    c0.067,0.078,0.133,0.156,0.199,0.235c0.307,0.363,0.603,0.736,0.89,1.117c0.055,0.073,0.112,0.145,0.166,0.219    c0.655,0.892,1.252,1.832,1.788,2.813c0.071,0.13,0.138,0.263,0.208,0.395c0.19,0.363,0.371,0.733,0.544,1.108    c0.069,0.148,0.138,0.296,0.204,0.445c0.213,0.486,0.415,0.979,0.598,1.48c0.007,0.018,0.013,0.034,0.02,0.052    c0.989,2.732,3.315,4.763,6.155,5.375c0.754,0.162,1.493,0.36,2.22,0.583c0.237,0.073,0.467,0.162,0.702,0.241    c0.484,0.162,0.966,0.327,1.437,0.515c0.272,0.109,0.537,0.232,0.804,0.349c0.421,0.184,0.84,0.371,1.25,0.575    c0.276,0.137,0.544,0.285,0.814,0.431c0.388,0.209,0.772,0.425,1.147,0.652c0.267,0.161,0.53,0.328,0.791,0.498    c0.364,0.237,0.723,0.484,1.075,0.738c0.251,0.181,0.499,0.362,0.743,0.551c0.349,0.27,0.687,0.551,1.022,0.836    c0.227,0.193,0.457,0.385,0.678,0.585c0.343,0.312,0.671,0.637,0.998,0.964c0.193,0.193,0.393,0.382,0.58,0.582    c0.368,0.391,0.716,0.799,1.061,1.209c0.128,0.153,0.264,0.297,0.389,0.452c0.46,0.574,0.899,1.164,1.313,1.773    c0.087,0.127,0.162,0.263,0.246,0.391c0.319,0.486,0.63,0.977,0.919,1.482c0.13,0.229,0.247,0.467,0.371,0.7    c0.224,0.418,0.444,0.837,0.647,1.266c0.126,0.267,0.238,0.54,0.355,0.81c0.178,0.411,0.35,0.822,0.508,1.242    c0.108,0.288,0.207,0.579,0.306,0.871c0.141,0.416,0.273,0.835,0.395,1.259c0.086,0.3,0.166,0.602,0.243,0.905    c0.107,0.43,0.201,0.863,0.288,1.299c0.061,0.304,0.12,0.608,0.171,0.916c0.024,0.143,0.036,0.288,0.057,0.432H37.627z     M225.888,441.03v-0.001c-0.007-0.08-0.024-0.159-0.03-0.238c-0.097-1.007-0.222-2.008-0.387-2.997    c-0.01-0.058-0.023-0.116-0.033-0.174c-0.172-1.009-0.377-2.008-0.617-2.996c-0.01-0.043-0.018-0.086-0.029-0.127    c-0.241-0.979-0.52-1.944-0.824-2.898c-0.033-0.102-0.063-0.207-0.097-0.309c-0.3-0.918-0.634-1.822-0.993-2.716    c-0.052-0.129-0.102-0.259-0.155-0.387c-0.36-0.875-0.749-1.735-1.163-2.582c-0.065-0.134-0.13-0.267-0.197-0.4    c-0.422-0.842-0.868-1.67-1.34-2.482c-0.072-0.123-0.144-0.244-0.217-0.367c-0.486-0.819-0.995-1.623-1.532-2.408    c-0.065-0.096-0.133-0.189-0.199-0.283c-0.56-0.806-1.141-1.597-1.751-2.364c-0.038-0.048-0.079-0.094-0.117-0.143    c-0.638-0.796-1.3-1.572-1.991-2.323c-0.008-0.008-0.015-0.017-0.022-0.025c-0.684-0.742-1.397-1.459-2.13-2.155    c-0.064-0.061-0.126-0.124-0.19-0.184c-0.705-0.661-1.435-1.297-2.183-1.913c-0.1-0.082-0.199-0.166-0.3-0.249    c-0.736-0.595-1.492-1.166-2.267-1.715c-0.12-0.085-0.24-0.17-0.36-0.254c-0.774-0.538-1.567-1.052-2.377-1.541    c-0.127-0.076-0.255-0.152-0.382-0.227c-0.821-0.485-1.657-0.946-2.51-1.379c-0.117-0.06-0.236-0.115-0.354-0.173    c-0.88-0.435-1.774-0.848-2.687-1.226c-0.081-0.034-0.163-0.063-0.244-0.096c-0.957-0.389-1.928-0.752-2.918-1.075    c-0.003-0.001-0.007-0.003-0.011-0.005c-0.043-0.087-0.092-0.168-0.135-0.254c-0.341-0.683-0.698-1.354-1.074-2.014    c-0.192-0.337-0.397-0.666-0.597-0.998c-0.243-0.399-0.488-0.797-0.743-1.188c-0.245-0.377-0.497-0.747-0.755-1.115    c-0.224-0.319-0.454-0.633-0.686-0.946c-0.292-0.395-0.585-0.788-0.891-1.172c-0.18-0.225-0.369-0.441-0.553-0.661    c-0.711-0.855-1.454-1.68-2.231-2.476c-0.134-0.137-0.262-0.279-0.397-0.414c-0.386-0.384-0.785-0.752-1.185-1.121    c-0.231-0.213-0.461-0.425-0.697-0.633c-0.382-0.336-0.77-0.666-1.166-0.99c-0.288-0.236-0.581-0.463-0.875-0.692    c-0.367-0.283-0.731-0.569-1.108-0.841c-0.53-0.384-1.072-0.75-1.62-1.109c-0.146-0.096-0.285-0.202-0.433-0.296    c6.148-10.386,17.402-16.989,29.836-16.989c0.761,0,1.587,0.035,2.599,0.109c3.609,0.269,6.994-1.804,8.397-5.145    c5.161-12.282,17.103-20.218,30.422-20.218c17.103,0,31.54,13.344,32.868,30.378c0.323,4.141,3.613,7.431,7.755,7.754    c12.867,1.003,24.021,9.498,28.417,21.643c0.989,2.732,3.315,4.763,6.155,5.375c15.564,3.354,27.11,16.738,28.407,32.428H225.888z    " fill="#FFFFFF"/>
	</g>
</g>
<g>
</g>
<g>
</g>
<g>
</g>
<g>
</g>
<g>
</g>
<g>
</g>
<g>
</g>
<g>
</g>
<g>
</g>
<g>
</g>
<g>
</g>
<g>
</g>
<g>
</g>
<g>
</g>
<g>
</g>
</svg>
