<svg fill="#fff" height="512pt" viewBox="0 0 512 512.03413" width="512pt" xmlns="http://www.w3.org/2000/svg"><path d="m11.109375 425.464844 226.988281 83.15625c5.839844 2.242187 12.039063 3.398437 18.292969 3.414062 6.011719 0 11.976563-1.070312 17.613281-3.160156l226.808594-82.429688c6.773438-2.429687 11.269531-8.878906 11.203125-16.078124v-34.132813c0-.066406 0-.121094 0-.1875s0-.222656 0-.332031c-.101563-7.253906-4.898437-13.597656-11.851563-15.667969l-127.144531-43.058594-65.964843-293.050781c-1.707032-23.8710938-38.664063-23.9375-51.039063-23.9375-12.371094 0-49.328125.0664062-51.035156 23.9375l-65.871094 292.648438-127.007813 42.445312c-7.027343 2.089844-11.90625 8.46875-12.085937 15.796875 0 .109375.0429688.21875.0429688.332031v.222656 34.132813c-.0507813 7.113281 4.3710942 13.496094 11.0507812 15.949219zm256.992187 67.351562c-7.773437 2.871094-16.320312 2.804688-24.046874-.179687l-226.972657-83.035157v-16.070312l220.964844 80.921875c5.839844 2.242187 12.039063 3.398437 18.292969 3.414063 6.011718 0 11.976562-1.070313 17.613281-3.15625l199.175781-72.390626.335938-.117187 21.484375-7.816406v15.980469zm-107.65625-193.296875c21.597657 9.285157 56.601563 14.847657 95.570313 14.847657 38.972656 0 73.960937-5.5625 95.574219-14.847657l15.257812 67.832031c-1.269531 7.859376-38.878906 25.183594-110.832031 25.183594-71.738281 0-109.320313-17.222656-110.691406-25.710937zm17.917969-79.753906c25.164063 7.613281 51.371094 11.203125 77.652344 10.632813 26.285156.570312 52.492187-3.019532 77.65625-10.632813l14.113281 62.757813c-16.128906 7.730468-48.734375 14.777343-91.769531 14.777343-43.03125 0-75.636719-7.046875-91.722656-14.777343zm20.992188-93.277344c18.480469 4.816407 37.523437 7.113281 56.617187 6.828125 19.097656.285156 38.140625-2.011718 56.621094-6.828125l17.226562 76.554688c-23.875 7.429687-48.804687 10.90625-73.804687 10.289062-25.011719.625-49.957031-2.851562-73.847656-10.289062zm18.339843-81.507812c12.1875 4.757812 25.25 6.878906 38.320313 6.21875 13.058594.65625 26.105469-1.464844 38.28125-6.21875l14.59375 64.851562c-17.257813 4.554688-35.0625 6.707031-52.90625 6.402344-17.847656.304687-35.648437-1.847656-52.90625-6.402344zm38.320313-27.914063c23.578125 0 34.136719 4.265625 34.136719 8.535156 0 4.265626-10.558594 8.53125-34.136719 8.53125-23.574219 0-34.132813-4.265624-34.132813-8.53125 0-4.269531 10.558594-8.535156 34.132813-8.535156zm-121.25 318.933594-5.453125 24.226562c-.050781.128907-.160156.214844-.210938.347657-.722656 2.042969-1.089843 4.195312-1.085937 6.359375 0 .347656.128906.664062.148437 1.015625.015626.347656.058594.554687.117188.851562 2.800781 28 67.429688 40.800781 127.734375 40.800781s124.9375-12.800781 127.738281-40.816406c.058594-.28125.082032-.554687.117188-.851562.035156-.300782.144531-.652344.144531-1 .007813-2.164063-.359375-4.316406-1.082031-6.359375-.050782-.125-.152344-.210938-.203125-.339844l-5.351563-23.746094 117.570313 39.746094-226.882813 82.449219c-7.769531 2.867187-16.320312 2.804687-24.046875-.179688l-226.707031-83.226562zm0 0"/></svg>
