<?xml version="1.0"?>
<svg xmlns="http://www.w3.org/2000/svg" height="512px" viewBox="0 -59 484.05 484" width="512px"><path d="m23.035156 265.269531c13.601563 11.320313 32.53125 17.554688 53.292969 17.554688 45.230469 0 76.820313-28.433594 76.820313-69.144531-.003907-4.015626-2.980469-7.40625-6.960938-7.925782l-58.277344-156.21875h119.667969c4.351563 11.667969 14.296875 20.351563 26.445313 23.085938v210.914062h-17.414063c-18.777344 0-34.5 14-38.199219 31h-3.171875c-4.515625.125-8.132812 3.78125-8.214843 8.300782v36.199218c0 4.417969 3.800781 7.5 8.21875 7.5h133.5625c4.421874 0 8.21875-3.085937 8.21875-7.5v-36.199218c-.078126-4.519532-3.699219-8.175782-8.21875-8.300782h-3.167969c-3.699219-17-19.417969-31-38.199219-31h-17.414062v-210.914062c12.148437-2.734375 22.097656-11.417969 26.449218-23.085938h119.664063l-58.273438 156.21875c-3.980469.519532-6.960937 3.910156-6.960937 7.925782 0 21.207031 7.964844 39.046874 23.035156 51.589843 13.601562 11.320313 32.527344 17.554688 53.292969 17.554688 45.230469 0 76.820312-28.433594 76.820312-69.144531 0-3.816407-2.699219-7.101563-6.441406-7.84375l-62.390625-167.257813c-.03125-.082031-.074219-.160156-.101562-.242187-.054688-.132813-.109376-.261719-.171876-.390626-.058593-.128906-.117187-.238281-.179687-.355468-.066406-.117188-.121094-.222656-.183594-.328125-.066406-.109375-.152343-.238281-.230469-.355469-.066406-.101562-.132812-.203125-.199218-.292969-.085938-.113281-.171875-.222656-.257813-.328125-.089843-.105468-.160156-.1875-.242187-.28125-.082032-.089844-.179688-.1875-.269532-.28125-.089843-.089844-.191406-.1875-.289062-.277344-.101562-.09375-.179688-.15625-.273438-.230468-.109374-.09375-.222656-.183594-.339843-.269532-.089844-.066406-.179688-.128906-.273438-.191406-.125-.082031-.246093-.164062-.375-.242187-.097656-.058594-.199219-.113281-.300781-.167969-.125-.066406-.25-.136719-.378906-.199219-.117188-.054687-.238282-.101562-.355469-.152343-.089844-.039063-.175781-.082032-.269531-.117188-.035156-.011719-.066406-.023438-.101563-.035156-.125-.042969-.253906-.082032-.378906-.121094-.128906-.039062-.253906-.078125-.382813-.109375-.125-.03125-.238281-.050781-.359374-.074219-.136719-.027344-.273438-.058594-.410157-.078125-.113281-.015625-.226562-.027343-.339843-.039062-.144532-.011719-.292969-.03125-.4375-.039063-.113282-.003906-.226563 0-.339844 0-.144532 0-.296875 0-.4375 0-.117188.007813-.234375.023438-.355469.035156-.140625.011719-.28125.023438-.421875.042969-.117188.015625-.238281.046875-.359375.070313h-127.59375c-1.671875-18.960938-17.550781-33.5039065-36.585937-33.5039065-19.03125 0-34.910157 14.5429685-36.582032 33.5039065h-127.558594c-.132812-.027344-.265624-.058594-.394531-.078125-.109375-.015625-.222656-.023438-.335937-.035157-.148438-.015624-.292969-.03125-.441406-.039062-.113282-.007812-.226563 0-.335938 0-.148438 0-.296875 0-.441406 0-.117188.003906-.234375.023438-.351563.03125-.140625.015625-.28125.023438-.425781.046875-.117188.015625-.234375.042969-.355469.066406-.136719.027344-.277343.054688-.414062.085938-.113281.03125-.230469.066406-.347657.101562-.136718.042969-.273437.082031-.410156.128907-.03125.011718-.0625.019531-.097656.03125-.089844.035156-.171875.078124-.261719.113281-.121093.050781-.246093.097656-.367187.15625-.121094.0625-.25.128906-.375.195312-.097656.054688-.207032.113281-.308594.171875-.125.074219-.25.15625-.371094.238282-.09375.0625-.1875.125-.277344.191406-.117187.089844-.226562.179687-.339843.269531-.089844.078125-.179688.152344-.269531.230469-.085938.082031-.199219.1875-.292969.28125-.09375.097656-.179688.183594-.265625.277344-.085938.09375-.164063.1875-.246094.285156-.078125.097656-.171875.214844-.253906.324218-.082032.109376-.140625.199219-.207032.300782-.078124.113281-.152343.230468-.222656.347656-.074218.121094-.128906.222656-.1875.335938-.058594.113281-.125.230468-.179687.347656-.054688.121094-.117188.265625-.171875.402344-.035156.078124-.074219.15625-.101563.238281l-62.390625 167.261719c-3.746094.742187-6.441406 4.027343-6.441406 7.84375 0 21.207031 7.964844 39.046874 23.035156 51.589843zm384.195313 1.480469c-17.03125 0-32.324219-4.957031-43.058594-13.890625-9.394531-7.816406-15.105469-18.324219-16.765625-31.324219h120.128906c-4.109375 31-32.328125 45.214844-60.304687 45.214844zm.492187-202.632812 52.75 141.417968h-105.5zm-106.699218 266.417968v20h-118v-20zm-33.582032-31c9.882813 0 18.332032 7 21.585938 15h-94.003906c3.257812-8 11.703124-15 21.589843-15zm-25.417968-283.5c11.449218.011719 20.726562 9.289063 20.738281 20.734375 0 .539063-.039063 1.066407-.082031 1.59375-.433594 1-.65625 2.078125-.65625 3.171875 0 .175782.015624.351563.027343.527344-2.75 10.398438-13 16.964844-23.59375 15.117188-10.597656-1.847657-18.019531-11.496094-17.089843-22.210938.929687-10.714844 9.902343-18.9375 20.65625-18.933594zm-165.699219 48.082032 52.757812 141.417968h-105.507812zm60.3125 157.417968c-4.117188 31-32.328125 45.214844-60.308594 45.214844-17.03125 0-32.320313-4.957031-43.054687-13.890625-9.398438-7.816406-15.109376-18.324219-16.769532-31.324219zm0 0" fill="#FFFFFF"/></svg>
