<svg id="Calque_1" data-name="Calque 1" xmlns="http://www.w3.org/2000/svg" viewBox="0 0 334.65 218.79"><defs><style>.cls-1{fill:#fff;}.cls-2{fill:none;stroke:#fff;stroke-miterlimit:10;stroke-width:6px;}</style></defs><title>infrastructure</title><path class="cls-1" d="M184,149.76a39,39,0,1,0,5,55A39.08,39.08,0,0,0,184,149.76Zm-43.73,52.5a29.28,29.28,0,1,1,41.24-3.76A29.31,29.31,0,0,1,140.29,202.26Z"/><path class="cls-1" d="M74,96.9a4.88,4.88,0,1,0-8.76-4.29A29.24,29.24,0,1,1,46.92,51.68a4.88,4.88,0,1,0,2.62-9.4A39.3,39.3,0,1,0,74,96.9Z"/><path class="cls-1" d="M212,98.62a4.94,4.94,0,0,0-1.84-3.33c-2.74-2.14-27.14-20.54-38.62-6.76s11,34.46,13.64,36.76l.12.1a4.81,4.81,0,0,0,3.49,1.12,4.9,4.9,0,0,0,3.38-1.74l18.74-22.5A4.88,4.88,0,0,0,212,98.62Zm-24,15.84c-5.95-6.32-12.37-15.65-9-19.68,3.5-4.2,13.94.76,21,5.3Z"/><path class="cls-1" d="M182.52,85.34,166.27,59.1a4.88,4.88,0,0,0-8.3,5.13l16.26,26.24a4.48,4.48,0,0,0,1,1.18,4.87,4.87,0,0,0,7.27-6.31Z"/><path class="cls-1" d="M163.84,180.62l13.72-77.48a4.89,4.89,0,0,0-9.62-1.72l-13.72,77.49a4.89,4.89,0,0,0,1.69,4.6,4.88,4.88,0,0,0,7.93-2.89Z"/><path class="cls-1" d="M68.4,97.94,48.22,81.13,61,75.55a4.88,4.88,0,1,0-3.92-8.94l-20,8.75a4.86,4.86,0,0,0-2.88,3.78,4.92,4.92,0,0,0,1.71,4.44l26.25,21.86a4.88,4.88,0,1,0,6.25-7.5Z"/><path class="cls-1" d="M176.58,99.84c2.15-4.78-.48-7.47-1.33-8.19C155,74.78,127,69.11,108.67,69a4.94,4.94,0,0,0-1.54-2.29C99.57,60.39,81,38.74,80.84,38.53a4.88,4.88,0,0,0-7.46,0l-3.17,3.8c-12.54-9.85-22.4-14.44-29.36-13.66a9.11,9.11,0,0,0-6.34,3.15,4.88,4.88,0,0,0,.76,6.72c15.18,12.65,32,62.53,37.2,80.68A4.87,4.87,0,0,0,74,121.68l30,25c12.75,10.62,61.62-32.64,69-41.47A24.61,24.61,0,0,0,176.58,99.84Zm-66.3,39.32-28.86-24c-2.56-8.69-15.79-51.91-31.48-74.42C54,42.68,59.8,46.32,67.76,53a4.88,4.88,0,0,0,6.87-.63l2.58-3.09c5,5.68,13.75,15.56,20.06,21.67l-.14.16a4.88,4.88,0,0,0,4.27,8c14.4-1.52,44.33,2.22,65.42,18.37C159.73,108,118.23,140.05,110.28,139.16Z"/><path class="cls-2" d="M238.51,199.4s34.18-17,32.41-28.36c-30.39-2-25.32-39.5,4.05-32.41-1-34.44,48.62-23.55,35.46,9.11,24.31-15.19,32.41,33.43-1,21.28,15.2,8.1-1,28.36-18.23,12.15C291.18,181.17,276.75,192.57,238.51,199.4Z"/><path class="cls-1" d="M273.43,160s24.9-8.81,25.83,8.82C299.26,168.82,287.81,156.76,273.43,160Z"/><path class="cls-1" d="M250,65.28a5.8,5.8,0,0,1-.68,1.79c-.45.92-1,1.9-1.59,2.93a31.28,31.28,0,0,1-1.8,2.75c-.61.82-1,1.22-1.3,1.22a4,4,0,0,1-1-.26c-.49-.18-1-.41-1.66-.69s-1.27-.59-2-1-1.3-.7-1.85-1-1-.61-1.39-.87-.56-.46-.56-.59a7.29,7.29,0,0,1,.65-2.51,28.46,28.46,0,0,1,1.54-3.2c.59-1,1.15-2,1.69-2.74S241,60,241.19,60a4.12,4.12,0,0,1,1.34.34c.57.23,1.18.52,1.83.86s1.31.73,2,1.17,1.27.85,1.8,1.24a15.2,15.2,0,0,1,1.32,1.05Q250,65.09,250,65.28Zm22.42-55q-2.49,6.25-5.18,12.53T261.84,35q-2.68,5.94-5.27,11.31t-4.79,9.76a15,15,0,0,1-3.95-1.85,12.21,12.21,0,0,1-2.93-2.59c1-2.51,2-5.31,3.1-8.42s2.19-6.72,3.42-10.82,2.55-8.8,4-14.11,3.1-11.41,5-18.31a19.57,19.57,0,0,1,3.93,2.25,41.18,41.18,0,0,1,3.73,3,36.18,36.18,0,0,1,2.91,3A8.63,8.63,0,0,1,272.39,10.3Z"/></svg>