<?xml version="1.0" encoding="iso-8859-1"?>
<!-- Generator: Adobe Illustrator 19.0.0, SVG Export Plug-In . SVG Version: 6.00 Build 0)  -->
<svg xmlns="http://www.w3.org/2000/svg" xmlns:xlink="http://www.w3.org/1999/xlink" version="1.1" id="Capa_1" x="0px" y="0px" viewBox="0 0 396.374 396.374" style="enable-background:new 0 0 396.374 396.374;" xml:space="preserve" width="512px" height="512px">
<g>
	<g>
		<g>
			<polygon points="287.974,61.707 287.974,61.704 287.974,61.627    " fill="#FFFFFF"/>
			<path d="M342.294,7.627h-240c-29.849,0.044-54.036,24.231-54.08,54.08v219.2c-29.691,3.242-51.132,29.94-47.89,59.631     c3.004,27.512,26.294,48.316,53.97,48.209h195.52c29.849-0.044,54.036-24.231,54.08-54.08v-218.88h38.4     c29.868,0,54.08-24.212,54.08-54.08S372.161,7.627,342.294,7.627z M211.494,372.747h-157.2c-21.053,0-38.12-17.067-38.12-38.12     s17.067-38.12,38.12-38.12h157.2C190.49,317.58,190.49,351.673,211.494,372.747z M287.974,61.704v272.963     c0,21.031-17.049,38.08-38.08,38.08s-38.08-17.049-38.08-38.08s17.049-38.08,38.08-38.08c4.418,0,8-3.582,8-8s-3.582-8-8-8     H64.534V61.707c0.043-20.889,16.872-37.861,37.76-38.08h201.36C293.595,33.745,287.957,47.437,287.974,61.704z M334.294,99.787     h-30.32v-13.12h30.32V99.787z M350.294,98.987v-0.08v-20.24c0-4.418-3.582-8-8-8h-38.32v-8.96     c0.056-21.031,17.151-38.034,38.182-37.978s38.034,17.151,37.978,38.182C380.086,79.729,367.689,95.131,350.294,98.987z" fill="#FFFFFF"/>
		</g>
	</g>
</g>
<g>
	<g>
		<path d="M233.414,86.987h-117.04c-4.418,0-8,3.582-8,8s3.582,8,8,8h117.04c4.418,0,8-3.582,8-8S237.832,86.987,233.414,86.987z" fill="#FFFFFF"/>
	</g>
</g>
<g>
	<g>
		<path d="M233.414,144.107h-117.04c-4.418,0-8,3.582-8,8s3.582,8,8,8h117.04c4.418,0,8-3.582,8-8S237.832,144.107,233.414,144.107z    " fill="#FFFFFF"/>
	</g>
</g>
<g>
	<g>
		<path d="M233.414,201.227h-117.04c-4.418,0-8,3.582-8,8s3.582,8,8,8h117.04c4.418,0,8-3.582,8-8S237.832,201.227,233.414,201.227z    " fill="#FFFFFF"/>
	</g>
</g>
<g>
</g>
<g>
</g>
<g>
</g>
<g>
</g>
<g>
</g>
<g>
</g>
<g>
</g>
<g>
</g>
<g>
</g>
<g>
</g>
<g>
</g>
<g>
</g>
<g>
</g>
<g>
</g>
<g>
</g>
</svg>
