<?xml version="1.0" encoding="iso-8859-1"?>
<!-- Generator: Adobe Illustrator 18.0.0, SVG Export Plug-In . SVG Version: 6.00 Build 0)  -->
<!DOCTYPE svg PUBLIC "-//W3C//DTD SVG 1.1//EN" "http://www.w3.org/Graphics/SVG/1.1/DTD/svg11.dtd">
<svg xmlns="http://www.w3.org/2000/svg" xmlns:xlink="http://www.w3.org/1999/xlink" version="1.1" id="Capa_1" x="0px" y="0px" viewBox="0 0 455.731 455.731" style="enable-background:new 0 0 455.731 455.731;" xml:space="preserve" width="512px" height="512px">
<path d="M0,0v455.731h455.731V0H0z M109.833,392.348c-25.454,0-46.088-20.634-46.088-46.088s20.635-46.088,46.088-46.088  c25.454,0,46.088,20.634,46.088,46.088S135.287,392.348,109.833,392.348z M218.081,390.559c0-84.882-69.056-153.939-153.938-153.939  v-64.348c120.363,0,218.285,97.923,218.285,218.286H218.081z M327.639,390.559c0-70.268-27.322-136.288-76.931-185.898  c-49.61-49.609-115.63-76.931-185.898-76.931V63.382c87.456,0,169.635,34.015,231.399,95.778  c61.763,61.763,95.778,143.943,95.778,231.399H327.639z" fill="#FFFFFF"/>
<g>
</g>
<g>
</g>
<g>
</g>
<g>
</g>
<g>
</g>
<g>
</g>
<g>
</g>
<g>
</g>
<g>
</g>
<g>
</g>
<g>
</g>
<g>
</g>
<g>
</g>
<g>
</g>
<g>
</g>
</svg>
