<svg height="512pt" viewBox="-1 0 512 512.1573" width="512pt" xmlns="http://www.w3.org/2000/svg"><path d="m181.367188 85.519531c-.027344 5.398438 3.070312 10.324219 7.945312 12.640625 11.332031 5.460938 43.71875 18.148438 99.628906 18.148438 3.554688 0 7.015625-.046875 10.382813-.144532h.09375c30.640625.160157 60.984375-5.976562 89.148437-18.03125 4.859375-2.332031 7.949219-7.246093 7.949219-12.636718s-3.089844-10.304688-7.949219-12.636719c-11.324218-5.464844-43.699218-18.152344-99.625-18.152344-55.929687 0-88.296875 12.707031-99.628906 18.175781-4.875 2.316407-7.96875 7.242188-7.945312 12.636719zm107.574218-13.71875c29.222656-.769531 58.339844 3.882813 85.871094 13.71875-25.023438 8.964844-51.40625 13.542969-77.988281 13.535157-5.375-.121094-10.792969-.121094-15.84375 0-26.574219.003906-52.953125-4.574219-77.972657-13.535157 27.550782-9.847656 56.6875-14.5 85.933594-13.71875zm0 0"/><path d="m1.90625 278.1875c2.828125 15.460938 7.609375 30.5 14.222656 44.757812 3.332032 7.136719 7.917969 13.621094 13.542969 19.140626 2.386719 2.265624 4.957031 4.335937 7.679687 6.183593-4.179687 16.777344-4.761718 34.246094-1.707031 51.261719 1.871094 9.679688 4.34375 19.230469 7.398438 28.601562 2.652343 9.949219 7.179687 19.300782 13.347656 27.546876 9.480469 10.417968 20.949219 18.832031 33.730469 24.746093 13.605468 6.675781 27.8125 12.035157 42.4375 16.007813 17.175781 4.785156 34.65625 8.382812 52.328125 10.761718 19.800781 2.730469 39.746093 4.300782 59.730469 4.703126 3.984374.085937 7.964843.128906 11.949218.128906 49.785156 1.253906 99.386719-6.496094 146.414063-22.886719 13.964843-4.835937 27.230469-11.496094 39.449219-19.808594 26.71875-19.207031 36.582031-59.605469 36.90625-91.007812.132812-18.128907-3.535157-36.085938-10.769532-52.710938-.519531-10.640625-5.972656-25.402343-26.042968-40.171875.792968-4.414062 1.492187-8.773437 2.03125-12.921875 1.21875-9.523437 1.355468-19.15625.410156-28.714843 19.726562-7.109376 36.511718-20.605469 47.699218-38.339844 6.441407-12.0625 11.238282-24.933594 14.261719-38.269532 7.277344-27.757812 5.175781-57.140624-5.976562-83.578124l-.101563-.210938c-2.671875-46.933594-94.753906-83.40625-211.90625-83.40625-117.402344 0-209.621094 36.625-211.945312 83.703125-7.773438 17.839844-11.421875 37.207031-10.664063 56.652344.101563 2.390625.28125 4.925781.496094 7.484375-35.117187 15.148437-54.761719 35.089844-55.851563 56.765625-5.457031 12.503906-8.890624 25.800781-10.171874 39.386719-1.253907 11.394531-.882813 22.90625 1.101562 34.195312zm430.554688 177.296875c-10.988282 7.402344-22.894532 13.335937-35.421876 17.65625-45.109374 15.65625-92.679687 23.039063-140.414062 21.792969-3.875 0-7.75-.042969-11.621094-.128906-19.328125-.386719-38.613281-1.898438-57.765625-4.53125-16.894531-2.261719-33.613281-5.683594-50.039062-10.238282-13.582031-3.683594-26.78125-8.652344-39.421875-14.839844-10.691406-4.90625-20.3125-11.863281-28.324219-20.480468-4.699219-6.617188-8.15625-14.03125-10.195313-21.886719-2.824218-8.695313-5.101562-17.554687-6.828124-26.53125-2.335938-12.871094-2.210938-26.070313.375-38.894531 2.84375 1.527344 5.683593 3.070312 8.707031 4.488281 32.433593 31.085937 108.578125 51.121094 195.113281 51.121094 96.945312 0 176.757812-24.96875 202.929688-60.175781 1.867187 8.308593 2.777343 16.804687 2.714843 25.320312-.265625 25.980469-8.226562 61.832031-29.808593 77.328125zm19.148437-128c0 40.328125-102.757813 68.4375-194.984375 68.4375-29.613281.097656-59.175781-2.496094-88.320312-7.75 3.542968.367187 7.015624.777344 10.65625 1.074219 14.328124 1.171875 29.117187 1.769531 43.957031 1.769531 18.871093.015625 37.730469-.96875 56.5-2.953125 34.433593-2.929688 68.226562-11.050781 100.230469-24.089844 12.128906-4.953125 23.484374-11.605468 33.734374-19.761718 12.078126-10.746094 20.695313-24.839844 24.746094-40.492188 7.652344 5.667969 12.550782 14.3125 13.480469 23.789062zm-23.96875-57.175781c-2.722656 20.875-8.03125 46.644531-25.097656 60.714844-9.015625 7.136718-19.003907 12.953124-29.660157 17.273437-30.429687 12.34375-62.546874 20.023437-95.265624 22.785156-32.324219 3.367188-64.886719 3.75-97.28125 1.140625-23.851563-1.785156-47.503907-5.652344-70.679688-11.5625-13.816406-3.433594-27.292969-8.101562-40.269531-13.949218l-.230469-.09375c-4.15625-1.9375-8.140625-3.960938-11.945312-6.128907-1.707032-.945312-3.203126-1.902343-4.789063-2.851562-.152344-.125-.359375-.1875-.519531-.304688-3.746094-2.105469-7.242188-4.625-10.429688-7.511719-4.144531-4.101562-7.519531-8.917968-9.957031-14.214843-5.957031-12.9375-10.257813-26.578125-12.800781-40.59375-1.671875-9.71875-1.957032-19.625-.851563-29.421875.453125-4.492188 1.175781-8.949219 2.15625-13.355469 14.773438 20.207031 47.183594 37.070313 93.910157 48.027344 35.769531 8.027343 72.332031 11.96875 108.988281 11.75 48.546875.75 96.878906-6.589844 143.019531-21.710938.238281-.066406.484375-.144531.714844-.230469 8.25-2.941406 16.300781-6.410156 24.109375-10.375 4.476562-.964843 9.085937-1.792968 13.445312-2.902343 7.929688-2.003907 16.0625-4.265625 24.101563-6.824219.40625 6.792969.183594 13.605469-.667969 20.359375zm62.746094-107.320313c-2.632813 11.839844-6.84375 23.273438-12.519531 33.996094-10.023438 15.382813-25.039063 26.847656-42.519532 32.46875-.332031-.039063-.664062-.054687-1-.050781-1.433594.25-2.773437.882812-3.882812 1.824218-9.804688 3.527344-20.128906 6.417969-30.453125 9.039063-36.359375 8.792969-73.664063 13.066406-111.070313 12.714844-35.972656.296875-71.851562-3.628907-106.90625-11.699219-25.140625-6.027344-56.421875-13.535156-75.28125-34.21875-12.554687-15.089844-20.25-33.621094-22.074218-53.164062.09375-1.152344-.042969-2.316407-.410157-3.414063-.410156-3.761719-.71875-7.429687-.855469-10.820313-.363281-9.648437.527344-19.308593 2.644532-28.730468 12.441406 14.648437 28.367187 25.929687 46.3125 32.808594.785156.507812 1.652344.875 2.558594 1.09375 38.402343 16.214843 92.742187 26.199218 153.984374 26.199218 96.75 0 176.445313-24.867187 202.785157-59.964844 3.496093 17.183594 3.046875 34.933594-1.3125 51.917969zm-201.445313-145.921875c92.234375 0 194.992188 28.160156 194.992188 68.453125 0 40.296875-102.757813 68.457031-194.992188 68.457031-92.238281 0-194.996094-28.109374-194.996094-68.457031 0-40.34375 102.765626-68.453125 194.996094-68.453125zm-219.625 148.394532c3.257813 19.640624 11.855469 38.003906 24.851563 53.085937 22.390625 24.566406 56.5 32.75 83.90625 39.320313 36.375 8.386718 73.609375 12.46875 110.933593 12.171874 1.964844 0 3.824219-.136718 5.761719-.164062-23.777343 3.410156-47.765625 5.105469-71.785156 5.070312-35.382813.246094-70.683594-3.535156-105.214844-11.265624-54.578125-12.800782-89.839843-35.257813-89.839843-57.171876 0-14.21875 14.933593-28.886718 41.386718-41.046874zm0 0"/><path d="m140.871094 101.179688c2.613281 1.636718 5.910156 1.734374 8.617187.253906 2.707031-1.480469 4.40625-4.304688 4.441407-7.390625.035156-3.085938-1.597657-5.949219-4.269532-7.488281-4.949218-2.96875-6.351562-5.257813-6.253906-5.90625 1.117188-7.484376 31.453125-21.640626 63.664062-29.703126 2.976563-.722656 5.339844-2.988281 6.1875-5.929687.847657-2.945313.050782-6.117187-2.082031-8.3125-2.136719-2.195313-5.285156-3.078125-8.25-2.3125-17.066406 4.265625-72.867187 19.992187-76.402343 43.75-.886719 6.039063.863281 14.949219 14.347656 23.039063zm0 0"/><path d="m179.398438 110.933594c0 4.710937-3.820313 8.53125-8.535157 8.53125-4.710937 0-8.53125-3.820313-8.53125-8.53125 0-4.714844 3.820313-8.535156 8.53125-8.535156 4.714844 0 8.535157 3.820312 8.535157 8.535156zm0 0"/></svg>