<?xml version="1.0" encoding="iso-8859-1"?>
<!-- Generator: Adobe Illustrator 16.0.0, SVG Export Plug-In . SVG Version: 6.00 Build 0)  -->
<!DOCTYPE svg PUBLIC "-//W3C//DTD SVG 1.1//EN" "http://www.w3.org/Graphics/SVG/1.1/DTD/svg11.dtd">
<svg xmlns="http://www.w3.org/2000/svg" xmlns:xlink="http://www.w3.org/1999/xlink" version="1.1" id="Capa_1" x="0px" y="0px" width="512px" height="512px" viewBox="0 0 449.533 449.533" style="enable-background:new 0 0 449.533 449.533;" xml:space="preserve">
<g>
	<g>
		<path d="M440.839,266.47c0-31.853,0-80.191,0-106.689c0-41.817-37.638-171.484-202.858-158.929    C118.86,9.889,68.236,92.853,49.255,138.457c-0.124,0.306-0.153,0.622-0.268,0.927c-0.564,0.688-1.186,1.32-1.578,2.161    c-1.874,4.074-45.804,101.096-37.724,205.92c0.105,1.405,0.507,2.715,1.109,3.901c0.029,0.258-0.028,0.478,0.01,0.745    c4.188,32.532,17.968,61.43,29.586,80.928c8.864,14.88,30.676,20.378,46.646,13.665l324.915-136.725    C427.901,303.257,440.839,283.797,440.839,266.47z M229.488,171.112c-11.321,32.264-36.002,83.472-85.622,118.327    c-42.687,30.007-79.005,36.452-102.998,36.193c-3.93-0.038-7.698,0.488-11.208,1.416C28.6,261.373,47.476,200.029,58.578,169.84    c3.29,2.152,7.172,3.567,11.504,3.949c25.675,2.267,63.026-0.095,94.697-24.46c19.794-15.233,34.865-20.483,46.053-21    C228.131,127.536,235.227,154.78,229.488,171.112z M357.187,272.724c-15.587,0-28.229-12.642-28.229-28.229    s12.642-28.229,28.229-28.229s28.238,12.642,28.238,28.229S372.773,272.724,357.187,272.724z" fill="$bg-color--light"/>
	</g>
</g>
<g>
</g>
<g>
</g>
<g>
</g>
<g>
</g>
<g>
</g>
<g>
</g>
<g>
</g>
<g>
</g>
<g>
</g>
<g>
</g>
<g>
</g>
<g>
</g>
<g>
</g>
<g>
</g>
<g>
</g>
</svg>
