<?xml version="1.0" standalone="no"?>
<!DOCTYPE svg PUBLIC "-//W3C//DTD SVG 20010904//EN"
 "http://www.w3.org/TR/2001/REC-SVG-20010904/DTD/svg10.dtd">
<svg version="1.0" xmlns="http://www.w3.org/2000/svg"
 width="520.000000pt" height="520.000000pt" viewBox="0 0 520.000000 520.000000"
 preserveAspectRatio="xMidYMid meet">
<metadata>
Created by potrace 1.11, written by Peter Selinger 2001-2013
</metadata>
<g transform="translate(0.000000,520.000000) scale(0.100000,-0.100000)"
fill="#000000" stroke="none">
<path d="M2798 5195 c-1 -1 -38 -5 -81 -9 -248 -20 -568 -93 -752 -171 -110
-47 -218 -97 -251 -115 -422 -235 -742 -553 -985 -980 -54 -94 -71 -127 -164
-325 -132 -279 -308 -830 -361 -1135 -3 -14 -11 -59 -19 -100 -8 -41 -17 -93
-20 -115 -3 -22 -8 -51 -10 -65 -2 -14 -7 -45 -10 -70 -4 -25 -8 -56 -10 -70
-2 -14 -7 -56 -10 -95 -4 -38 -9 -88 -12 -110 -2 -22 -6 -159 -8 -305 -2 -238
1 -319 18 -400 3 -14 8 -43 11 -65 30 -218 128 -493 276 -775 61 -116 138
-204 208 -238 73 -35 163 -53 243 -48 90 6 133 19 294 91 17 7 343 144 725
305 382 161 714 301 737 311 23 10 44 19 47 19 3 0 29 11 58 24 29 13 103 44
163 69 61 26 272 114 470 198 198 83 419 175 490 205 130 55 140 59 205 87 19
8 165 70 323 136 158 67 308 130 332 141 24 11 48 20 53 20 12 0 121 72 152
102 47 43 101 116 130 176 62 128 60 106 56 907 l-3 730 -26 105 c-40 166 -54
211 -102 329 -160 395 -405 700 -737 915 -173 113 -429 218 -643 265 -89 19
-112 23 -210 36 -27 4 -61 9 -75 12 -28 5 -496 13 -502 8z m-255 -1511 c57
-38 95 -103 124 -214 3 -8 5 -55 5 -105 1 -96 -7 -128 -79 -305 -87 -211 -243
-494 -345 -625 -158 -202 -166 -212 -268 -314 -130 -131 -219 -203 -380 -311
-347 -233 -722 -365 -1070 -375 -58 -2 -125 -6 -148 -10 l-42 -6 5 163 c6 190
13 279 31 423 6 45 8 62 30 210 2 17 11 64 19 105 9 41 17 86 20 100 31 165
113 468 182 670 25 74 47 137 49 139 2 2 14 0 27 -6 12 -6 36 -16 54 -23 40
-15 299 -20 413 -9 269 28 517 123 736 281 55 40 109 78 120 85 233 147 419
192 517 127z m1670 -999 c147 -37 242 -162 242 -315 -2 -184 -137 -319 -326
-322 -79 -1 -163 33 -222 90 -128 123 -132 332 -10 456 91 92 193 122 316 91z"/>
</g>
</svg>
